<mxfile host="app.diagrams.net" modified="2022-02-04T16:56:59.542Z" agent="5.0 (Macintosh; Intel Mac OS X 10_15_6) AppleWebKit/537.36 (KHTML, like Gecko) Chrome/97.0.4692.71 Safari/537.36" etag="uqMy9unmETCSCz0rNow_" version="16.4.5" type="github">
  <diagram id="fEmHT7kOdsoCuKjdsANc" name="Page-1">
    <mxGraphModel dx="1209" dy="803" grid="1" gridSize="10" guides="1" tooltips="1" connect="1" arrows="1" fold="1" page="1" pageScale="1" pageWidth="1654" pageHeight="1169" math="0" shadow="0">
      <root>
        <mxCell id="0" />
        <mxCell id="1" parent="0" />
        <mxCell id="HrXDNsSSmPqCC7vMRJJ6-56" value="Elastic Load Balancing" style="sketch=0;outlineConnect=0;gradientColor=none;html=1;whiteSpace=wrap;fontSize=12;fontStyle=0;shape=mxgraph.aws4.groupCenter;grIcon=mxgraph.aws4.group_elastic_load_balancing;grStroke=1;strokeColor=#007DBC;fillColor=none;verticalAlign=top;align=center;fontColor=#007DBC;dashed=0;spacingTop=25;" vertex="1" parent="1">
          <mxGeometry x="320" y="1800" width="520" height="310" as="geometry" />
        </mxCell>
        <mxCell id="HrXDNsSSmPqCC7vMRJJ6-16" value="Auto Scaling group" style="points=[[0,0],[0.25,0],[0.5,0],[0.75,0],[1,0],[1,0.25],[1,0.5],[1,0.75],[1,1],[0.75,1],[0.5,1],[0.25,1],[0,1],[0,0.75],[0,0.5],[0,0.25]];outlineConnect=0;gradientColor=none;html=1;whiteSpace=wrap;fontSize=12;fontStyle=0;container=1;pointerEvents=0;collapsible=0;recursiveResize=0;shape=mxgraph.aws4.groupCenter;grIcon=mxgraph.aws4.group_auto_scaling_group;grStroke=1;strokeColor=#D86613;fillColor=none;verticalAlign=top;align=center;fontColor=#D86613;dashed=1;spacingTop=25;" vertex="1" parent="1">
          <mxGeometry x="360" y="1860" width="440" height="220" as="geometry" />
        </mxCell>
        <mxCell id="HrXDNsSSmPqCC7vMRJJ6-15" value="Amazon EC2" style="sketch=0;outlineConnect=0;fontColor=#232F3E;gradientColor=none;strokeColor=#ffffff;fillColor=#232F3E;dashed=0;verticalLabelPosition=middle;verticalAlign=bottom;align=center;html=1;whiteSpace=wrap;fontSize=10;fontStyle=1;spacing=3;shape=mxgraph.aws4.productIcon;prIcon=mxgraph.aws4.ec2;" vertex="1" parent="HrXDNsSSmPqCC7vMRJJ6-16">
          <mxGeometry x="40" y="60" width="80" height="100" as="geometry" />
        </mxCell>
        <mxCell id="HrXDNsSSmPqCC7vMRJJ6-18" value="Amazon EC2" style="sketch=0;outlineConnect=0;fontColor=#232F3E;gradientColor=none;strokeColor=#ffffff;fillColor=#232F3E;dashed=0;verticalLabelPosition=middle;verticalAlign=bottom;align=center;html=1;whiteSpace=wrap;fontSize=10;fontStyle=1;spacing=3;shape=mxgraph.aws4.productIcon;prIcon=mxgraph.aws4.ec2;" vertex="1" parent="HrXDNsSSmPqCC7vMRJJ6-16">
          <mxGeometry x="180" y="60" width="80" height="100" as="geometry" />
        </mxCell>
        <mxCell id="HrXDNsSSmPqCC7vMRJJ6-19" value="Amazon EC2" style="sketch=0;outlineConnect=0;fontColor=#232F3E;gradientColor=none;strokeColor=#ffffff;fillColor=#232F3E;dashed=0;verticalLabelPosition=middle;verticalAlign=bottom;align=center;html=1;whiteSpace=wrap;fontSize=10;fontStyle=1;spacing=3;shape=mxgraph.aws4.productIcon;prIcon=mxgraph.aws4.ec2;" vertex="1" parent="HrXDNsSSmPqCC7vMRJJ6-16">
          <mxGeometry x="320" y="60" width="80" height="100" as="geometry" />
        </mxCell>
        <mxCell id="My-nLLBE2OA9j9z7y-mx-7" value="" style="rounded=0;orthogonalLoop=1;jettySize=auto;html=1;strokeWidth=2;fillColor=#e51400;strokeColor=#00CC00;endArrow=oval;endFill=1;" parent="1" source="My-nLLBE2OA9j9z7y-mx-1" target="My-nLLBE2OA9j9z7y-mx-4" edge="1">
          <mxGeometry relative="1" as="geometry" />
        </mxCell>
        <mxCell id="My-nLLBE2OA9j9z7y-mx-24" style="rounded=0;orthogonalLoop=1;jettySize=auto;html=1;entryX=0.5;entryY=1;entryDx=0;entryDy=0;strokeWidth=2;strokeColor=#FFFFFF;endArrow=classic;endFill=1;" parent="1" source="My-nLLBE2OA9j9z7y-mx-1" target="My-nLLBE2OA9j9z7y-mx-10" edge="1">
          <mxGeometry relative="1" as="geometry" />
        </mxCell>
        <mxCell id="BwwPgPFtUyIt0dPUlxsC-3" style="edgeStyle=none;orthogonalLoop=1;jettySize=auto;html=1;entryX=1;entryY=0;entryDx=0;entryDy=0;startArrow=none;startFill=0;elbow=vertical;strokeWidth=2;endArrow=classic;endFill=1;strokeColor=#FFFFFF;" parent="1" source="My-nLLBE2OA9j9z7y-mx-1" target="My-nLLBE2OA9j9z7y-mx-8" edge="1">
          <mxGeometry relative="1" as="geometry" />
        </mxCell>
        <mxCell id="My-nLLBE2OA9j9z7y-mx-1" value="Admin" style="rhombus;whiteSpace=wrap;html=1;strokeColor=#00CC00;strokeWidth=4;gradientColor=none;fillColor=#000000;aspect=fixed;" parent="1" vertex="1">
          <mxGeometry x="200" y="260" width="90" height="90" as="geometry" />
        </mxCell>
        <mxCell id="My-nLLBE2OA9j9z7y-mx-9" value="" style="rounded=0;orthogonalLoop=1;jettySize=auto;html=1;strokeWidth=2;strokeColor=#00CC00;endArrow=oval;endFill=1;" parent="1" source="My-nLLBE2OA9j9z7y-mx-2" target="My-nLLBE2OA9j9z7y-mx-8" edge="1">
          <mxGeometry relative="1" as="geometry" />
        </mxCell>
        <mxCell id="My-nLLBE2OA9j9z7y-mx-26" style="edgeStyle=none;orthogonalLoop=1;jettySize=auto;html=1;entryX=1;entryY=0;entryDx=0;entryDy=0;startArrow=none;startFill=0;elbow=vertical;strokeWidth=2;" parent="1" source="My-nLLBE2OA9j9z7y-mx-2" target="My-nLLBE2OA9j9z7y-mx-10" edge="1">
          <mxGeometry relative="1" as="geometry" />
        </mxCell>
        <mxCell id="My-nLLBE2OA9j9z7y-mx-27" style="edgeStyle=none;orthogonalLoop=1;jettySize=auto;html=1;entryX=1;entryY=0.5;entryDx=0;entryDy=0;startArrow=none;startFill=0;elbow=vertical;strokeWidth=2;" parent="1" source="My-nLLBE2OA9j9z7y-mx-2" target="My-nLLBE2OA9j9z7y-mx-20" edge="1">
          <mxGeometry relative="1" as="geometry" />
        </mxCell>
        <mxCell id="My-nLLBE2OA9j9z7y-mx-30" value="" style="edgeStyle=none;orthogonalLoop=1;jettySize=auto;html=1;startArrow=none;startFill=0;elbow=vertical;strokeColor=#000000;strokeWidth=2;" parent="1" source="My-nLLBE2OA9j9z7y-mx-2" target="My-nLLBE2OA9j9z7y-mx-29" edge="1">
          <mxGeometry relative="1" as="geometry" />
        </mxCell>
        <mxCell id="RpnBOwdHUaDScRDf1t51-14" style="edgeStyle=none;shape=connector;curved=1;rounded=0;orthogonalLoop=1;jettySize=auto;html=1;entryX=1;entryY=1;entryDx=0;entryDy=0;labelBackgroundColor=default;fontFamily=Helvetica;fontSize=11;fontColor=#000000;endArrow=classic;endFill=1;startSize=14;endSize=6;sourcePerimeterSpacing=8;targetPerimeterSpacing=8;strokeColor=#FFFFFF;strokeWidth=2;exitX=0;exitY=0;exitDx=0;exitDy=0;" parent="1" source="My-nLLBE2OA9j9z7y-mx-2" target="My-nLLBE2OA9j9z7y-mx-4" edge="1">
          <mxGeometry relative="1" as="geometry" />
        </mxCell>
        <mxCell id="My-nLLBE2OA9j9z7y-mx-2" value="Manage" style="rhombus;whiteSpace=wrap;html=1;strokeColor=#00CC00;strokeWidth=4;fillColor=#000000;aspect=fixed;" parent="1" vertex="1">
          <mxGeometry x="660" y="710" width="90" height="90" as="geometry" />
        </mxCell>
        <mxCell id="My-nLLBE2OA9j9z7y-mx-17" value="" style="rounded=0;orthogonalLoop=1;jettySize=auto;html=1;exitX=1;exitY=0.5;exitDx=0;exitDy=0;strokeWidth=2;fillColor=#e51400;strokeColor=#00CC00;endArrow=oval;endFill=1;" parent="1" source="My-nLLBE2OA9j9z7y-mx-3" target="My-nLLBE2OA9j9z7y-mx-10" edge="1">
          <mxGeometry relative="1" as="geometry" />
        </mxCell>
        <mxCell id="My-nLLBE2OA9j9z7y-mx-18" value="" style="rounded=0;orthogonalLoop=1;jettySize=auto;html=1;exitX=1;exitY=1;exitDx=0;exitDy=0;strokeWidth=2;fillColor=#e51400;strokeColor=#00CC00;endArrow=oval;endFill=1;" parent="1" source="My-nLLBE2OA9j9z7y-mx-3" target="My-nLLBE2OA9j9z7y-mx-11" edge="1">
          <mxGeometry relative="1" as="geometry" />
        </mxCell>
        <mxCell id="My-nLLBE2OA9j9z7y-mx-3" value="Auth" style="rhombus;whiteSpace=wrap;html=1;direction=west;rotation=0;strokeColor=#00CC00;strokeWidth=4;fillColor=#000000;" parent="1" vertex="1">
          <mxGeometry x="790" y="330" width="90" height="90" as="geometry" />
        </mxCell>
        <mxCell id="My-nLLBE2OA9j9z7y-mx-6" value="" style="rounded=0;orthogonalLoop=1;jettySize=auto;html=1;strokeWidth=2;" parent="1" source="My-nLLBE2OA9j9z7y-mx-4" target="My-nLLBE2OA9j9z7y-mx-5" edge="1">
          <mxGeometry relative="1" as="geometry" />
        </mxCell>
        <mxCell id="My-nLLBE2OA9j9z7y-mx-25" style="rounded=0;orthogonalLoop=1;jettySize=auto;html=1;entryX=1;entryY=0.5;entryDx=0;entryDy=0;startArrow=classic;startFill=1;strokeWidth=2;" parent="1" source="My-nLLBE2OA9j9z7y-mx-4" target="My-nLLBE2OA9j9z7y-mx-8" edge="1">
          <mxGeometry relative="1" as="geometry" />
        </mxCell>
        <mxCell id="My-nLLBE2OA9j9z7y-mx-39" value="" style="edgeStyle=none;orthogonalLoop=1;jettySize=auto;html=1;startArrow=none;startFill=0;elbow=vertical;strokeWidth=2;" parent="1" source="My-nLLBE2OA9j9z7y-mx-4" target="My-nLLBE2OA9j9z7y-mx-38" edge="1">
          <mxGeometry relative="1" as="geometry" />
        </mxCell>
        <mxCell id="My-nLLBE2OA9j9z7y-mx-4" value="Email" style="ellipse;whiteSpace=wrap;html=1;aspect=fixed;strokeColor=#00CC00;strokeWidth=3;" parent="1" vertex="1">
          <mxGeometry x="340" y="500" width="80" height="80" as="geometry" />
        </mxCell>
        <mxCell id="My-nLLBE2OA9j9z7y-mx-5" value="RDS" style="shape=cylinder3;whiteSpace=wrap;html=1;boundedLbl=1;backgroundOutline=1;size=15;fillColor=#1ba1e2;strokeColor=#006EAF;fontColor=#ffffff;" parent="1" vertex="1">
          <mxGeometry x="540" y="550" width="60" height="80" as="geometry" />
        </mxCell>
        <mxCell id="My-nLLBE2OA9j9z7y-mx-13" value="" style="rounded=0;orthogonalLoop=1;jettySize=auto;html=1;strokeWidth=2;" parent="1" source="My-nLLBE2OA9j9z7y-mx-8" target="My-nLLBE2OA9j9z7y-mx-12" edge="1">
          <mxGeometry relative="1" as="geometry">
            <Array as="points">
              <mxPoint x="140" y="370" />
            </Array>
          </mxGeometry>
        </mxCell>
        <mxCell id="BwwPgPFtUyIt0dPUlxsC-2" style="edgeStyle=none;orthogonalLoop=1;jettySize=auto;html=1;entryX=0;entryY=0;entryDx=0;entryDy=0;startArrow=none;startFill=0;elbow=vertical;strokeWidth=2;" parent="1" source="My-nLLBE2OA9j9z7y-mx-8" target="My-nLLBE2OA9j9z7y-mx-20" edge="1">
          <mxGeometry relative="1" as="geometry">
            <Array as="points" />
          </mxGeometry>
        </mxCell>
        <mxCell id="My-nLLBE2OA9j9z7y-mx-8" value="User" style="ellipse;whiteSpace=wrap;html=1;aspect=fixed;strokeColor=#00CC00;strokeWidth=3;" parent="1" vertex="1">
          <mxGeometry x="120" y="560" width="80" height="80" as="geometry" />
        </mxCell>
        <mxCell id="My-nLLBE2OA9j9z7y-mx-19" value="" style="rounded=0;orthogonalLoop=1;jettySize=auto;html=1;exitX=0;exitY=1;exitDx=0;exitDy=0;strokeWidth=2;" parent="1" source="My-nLLBE2OA9j9z7y-mx-10" target="My-nLLBE2OA9j9z7y-mx-12" edge="1">
          <mxGeometry relative="1" as="geometry" />
        </mxCell>
        <mxCell id="My-nLLBE2OA9j9z7y-mx-10" value="Key" style="ellipse;whiteSpace=wrap;html=1;aspect=fixed;direction=south;strokeColor=#00CC00;strokeWidth=3;" parent="1" vertex="1">
          <mxGeometry x="560" y="330" width="80" height="80" as="geometry" />
        </mxCell>
        <mxCell id="My-nLLBE2OA9j9z7y-mx-15" value="" style="rounded=0;orthogonalLoop=1;jettySize=auto;html=1;strokeWidth=2;" parent="1" source="My-nLLBE2OA9j9z7y-mx-11" target="My-nLLBE2OA9j9z7y-mx-12" edge="1">
          <mxGeometry relative="1" as="geometry" />
        </mxCell>
        <mxCell id="My-nLLBE2OA9j9z7y-mx-49" value="" style="edgeStyle=none;orthogonalLoop=1;jettySize=auto;html=1;startArrow=none;startFill=0;elbow=vertical;strokeWidth=2;exitX=0.5;exitY=1;exitDx=0;exitDy=0;fillColor=#cdeb8b;strokeColor=#FFFFFF;endArrow=classic;endFill=1;" parent="1" source="My-nLLBE2OA9j9z7y-mx-3" target="My-nLLBE2OA9j9z7y-mx-48" edge="1">
          <mxGeometry relative="1" as="geometry" />
        </mxCell>
        <mxCell id="RpnBOwdHUaDScRDf1t51-8" value="" style="edgeStyle=none;curved=1;rounded=0;orthogonalLoop=1;jettySize=auto;html=1;fontColor=#000000;endArrow=classic;startSize=14;endSize=6;sourcePerimeterSpacing=8;targetPerimeterSpacing=8;strokeWidth=2;entryX=0;entryY=0;entryDx=0;entryDy=52.5;entryPerimeter=0;endFill=1;exitX=1;exitY=0;exitDx=0;exitDy=0;" parent="1" source="My-nLLBE2OA9j9z7y-mx-11" target="My-nLLBE2OA9j9z7y-mx-28" edge="1">
          <mxGeometry relative="1" as="geometry">
            <mxPoint x="480" y="140" as="sourcePoint" />
          </mxGeometry>
        </mxCell>
        <mxCell id="My-nLLBE2OA9j9z7y-mx-11" value="Auth" style="ellipse;whiteSpace=wrap;html=1;aspect=fixed;strokeColor=#00CC00;strokeWidth=3;" parent="1" vertex="1">
          <mxGeometry x="340" y="110" width="80" height="80" as="geometry" />
        </mxCell>
        <mxCell id="My-nLLBE2OA9j9z7y-mx-42" value="" style="edgeStyle=none;orthogonalLoop=1;jettySize=auto;html=1;startArrow=none;startFill=0;elbow=vertical;strokeWidth=2;fillColor=#1ba1e2;strokeColor=#FFFFFF;" parent="1" source="My-nLLBE2OA9j9z7y-mx-41" target="My-nLLBE2OA9j9z7y-mx-12" edge="1">
          <mxGeometry relative="1" as="geometry" />
        </mxCell>
        <mxCell id="My-nLLBE2OA9j9z7y-mx-12" value="MongoDB" style="shape=cylinder3;whiteSpace=wrap;html=1;boundedLbl=1;backgroundOutline=1;size=15;fillColor=#1ba1e2;strokeColor=#006EAF;fontColor=#ffffff;" parent="1" vertex="1">
          <mxGeometry x="90" y="50" width="60" height="80" as="geometry" />
        </mxCell>
        <mxCell id="My-nLLBE2OA9j9z7y-mx-20" value="Opensearch" style="ellipse;whiteSpace=wrap;html=1;aspect=fixed;rotation=-10;strokeColor=#00CC00;strokeWidth=3;" parent="1" vertex="1">
          <mxGeometry x="310" y="770" width="80" height="80" as="geometry" />
        </mxCell>
        <mxCell id="My-nLLBE2OA9j9z7y-mx-28" value="Redis" style="shape=cylinder3;whiteSpace=wrap;html=1;boundedLbl=1;backgroundOutline=1;size=15;direction=east;fillColor=#1ba1e2;strokeColor=#006EAF;fontColor=#ffffff;" parent="1" vertex="1">
          <mxGeometry x="570" y="50" width="60" height="80" as="geometry" />
        </mxCell>
        <mxCell id="My-nLLBE2OA9j9z7y-mx-29" value="Redis" style="shape=cylinder3;whiteSpace=wrap;html=1;boundedLbl=1;backgroundOutline=1;size=15;fillColor=#1ba1e2;strokeColor=#006EAF;fontColor=#ffffff;" parent="1" vertex="1">
          <mxGeometry x="810" y="680" width="60" height="80" as="geometry" />
        </mxCell>
        <mxCell id="My-nLLBE2OA9j9z7y-mx-38" value="Aws ses&amp;nbsp;" style="shape=process;whiteSpace=wrap;html=1;backgroundOutline=1;fillColor=#e3c800;fontColor=#000000;strokeColor=#B09500;" parent="1" vertex="1">
          <mxGeometry x="370" y="370" width="120" height="60" as="geometry" />
        </mxCell>
        <mxCell id="My-nLLBE2OA9j9z7y-mx-43" value="" style="edgeStyle=none;orthogonalLoop=1;jettySize=auto;html=1;startArrow=none;startFill=0;elbow=vertical;entryX=0;entryY=0.5;entryDx=0;entryDy=0;endSize=6;strokeWidth=2;fillColor=#1ba1e2;strokeColor=#FFFFFF;" parent="1" source="My-nLLBE2OA9j9z7y-mx-41" target="My-nLLBE2OA9j9z7y-mx-20" edge="1">
          <mxGeometry relative="1" as="geometry" />
        </mxCell>
        <mxCell id="HrXDNsSSmPqCC7vMRJJ6-1" style="rounded=0;orthogonalLoop=1;jettySize=auto;html=1;strokeWidth=2;entryX=0.145;entryY=1;entryDx=0;entryDy=-4.35;entryPerimeter=0;strokeColor=default;" edge="1" parent="1" source="My-nLLBE2OA9j9z7y-mx-41" target="My-nLLBE2OA9j9z7y-mx-12">
          <mxGeometry relative="1" as="geometry">
            <mxPoint x="60" y="290" as="targetPoint" />
          </mxGeometry>
        </mxCell>
        <mxCell id="HrXDNsSSmPqCC7vMRJJ6-2" value="" style="edgeStyle=none;rounded=0;orthogonalLoop=1;jettySize=auto;html=1;strokeColor=default;strokeWidth=2;entryX=0;entryY=0.5;entryDx=0;entryDy=0;" edge="1" parent="1" source="My-nLLBE2OA9j9z7y-mx-41" target="My-nLLBE2OA9j9z7y-mx-20">
          <mxGeometry relative="1" as="geometry" />
        </mxCell>
        <mxCell id="My-nLLBE2OA9j9z7y-mx-41" value="Monstache&amp;nbsp;" style="ellipse;whiteSpace=wrap;html=1;aspect=fixed;strokeWidth=3;strokeColor=#00CC00;" parent="1" vertex="1">
          <mxGeometry x="40" y="780" width="80" height="80" as="geometry" />
        </mxCell>
        <mxCell id="My-nLLBE2OA9j9z7y-mx-45" style="edgeStyle=none;orthogonalLoop=1;jettySize=auto;html=1;entryX=0;entryY=1;entryDx=0;entryDy=0;startArrow=none;startFill=0;elbow=vertical;strokeWidth=2;" parent="1" source="My-nLLBE2OA9j9z7y-mx-44" target="My-nLLBE2OA9j9z7y-mx-20" edge="1">
          <mxGeometry relative="1" as="geometry" />
        </mxCell>
        <mxCell id="My-nLLBE2OA9j9z7y-mx-47" value="" style="edgeStyle=none;orthogonalLoop=1;jettySize=auto;html=1;startArrow=none;startFill=0;elbow=vertical;strokeWidth=2;" parent="1" source="My-nLLBE2OA9j9z7y-mx-44" target="My-nLLBE2OA9j9z7y-mx-46" edge="1">
          <mxGeometry relative="1" as="geometry" />
        </mxCell>
        <mxCell id="My-nLLBE2OA9j9z7y-mx-44" value="Daily alert" style="ellipse;whiteSpace=wrap;html=1;aspect=fixed;strokeColor=#00CC00;strokeWidth=3;" parent="1" vertex="1">
          <mxGeometry x="180" y="870" width="80" height="80" as="geometry" />
        </mxCell>
        <mxCell id="My-nLLBE2OA9j9z7y-mx-46" value="Slack" style="shape=process;whiteSpace=wrap;html=1;backgroundOutline=1;fillColor=#e3c800;fontColor=#000000;strokeColor=#B09500;" parent="1" vertex="1">
          <mxGeometry x="340" y="980" width="120" height="60" as="geometry" />
        </mxCell>
        <mxCell id="My-nLLBE2OA9j9z7y-mx-51" value="" style="edgeStyle=none;orthogonalLoop=1;jettySize=auto;html=1;startArrow=none;startFill=0;elbow=vertical;strokeWidth=2;" parent="1" source="My-nLLBE2OA9j9z7y-mx-48" target="My-nLLBE2OA9j9z7y-mx-50" edge="1">
          <mxGeometry relative="1" as="geometry" />
        </mxCell>
        <mxCell id="My-nLLBE2OA9j9z7y-mx-48" value="Device setting" style="ellipse;whiteSpace=wrap;html=1;aspect=fixed;strokeColor=#00CC00;strokeWidth=3;" parent="1" vertex="1">
          <mxGeometry x="630" y="130" width="80" height="80" as="geometry" />
        </mxCell>
        <mxCell id="My-nLLBE2OA9j9z7y-mx-50" value="RDS" style="shape=cylinder3;whiteSpace=wrap;html=1;boundedLbl=1;backgroundOutline=1;size=15;fillColor=#1ba1e2;strokeColor=#006EAF;fontColor=#ffffff;" parent="1" vertex="1">
          <mxGeometry x="800" y="55" width="60" height="80" as="geometry" />
        </mxCell>
        <mxCell id="RpnBOwdHUaDScRDf1t51-12" value="" style="edgeStyle=none;curved=1;rounded=0;orthogonalLoop=1;jettySize=auto;html=1;fontColor=#000000;endArrow=classic;endFill=1;startSize=14;endSize=6;sourcePerimeterSpacing=8;targetPerimeterSpacing=8;strokeColor=#FFFFFF;strokeWidth=2;exitX=0;exitY=0.5;exitDx=0;exitDy=0;exitPerimeter=0;" parent="1" source="RpnBOwdHUaDScRDf1t51-10" edge="1">
          <mxGeometry relative="1" as="geometry">
            <mxPoint x="420" y="536" as="targetPoint" />
          </mxGeometry>
        </mxCell>
        <mxCell id="RpnBOwdHUaDScRDf1t51-10" value="Event bridge" style="shape=process;whiteSpace=wrap;html=1;backgroundOutline=1;fillColor=#e3c800;strokeColor=#B09500;fontColor=#000000;" parent="1" vertex="1">
          <mxGeometry x="500" y="470" width="120" height="60" as="geometry" />
        </mxCell>
        <mxCell id="RpnBOwdHUaDScRDf1t51-16" value="- 다이아몬드는 유입서버&lt;br&gt;- 초록선 관계: 서비스 종속 관계&lt;br&gt;- 흰색선 관계: 서비스 호출관계" style="shape=note;whiteSpace=wrap;html=1;backgroundOutline=1;fontColor=#000000;darkOpacity=0.05;fillColor=#FFF9B2;strokeColor=none;fillStyle=solid;direction=west;gradientDirection=north;gradientColor=#FFF2A1;shadow=1;size=20;pointerEvents=1;hachureGap=4;fontFamily=Helvetica;fontSize=16;align=left;verticalAlign=top;" parent="1" vertex="1">
          <mxGeometry x="919" width="250" height="90" as="geometry" />
        </mxCell>
        <mxCell id="HrXDNsSSmPqCC7vMRJJ6-46" value="" style="rounded=0;orthogonalLoop=1;jettySize=auto;html=1;strokeColor=#000000;strokeWidth=2;" edge="1" parent="1" source="HrXDNsSSmPqCC7vMRJJ6-5" target="HrXDNsSSmPqCC7vMRJJ6-56">
          <mxGeometry relative="1" as="geometry">
            <mxPoint x="580" y="1720" as="targetPoint" />
          </mxGeometry>
        </mxCell>
        <mxCell id="HrXDNsSSmPqCC7vMRJJ6-5" value="User" style="sketch=0;outlineConnect=0;fontColor=#232F3E;gradientColor=none;strokeColor=#232F3E;fillColor=#ffffff;dashed=0;verticalLabelPosition=bottom;verticalAlign=top;align=center;html=1;fontSize=12;fontStyle=0;aspect=fixed;shape=mxgraph.aws4.resourceIcon;resIcon=mxgraph.aws4.client;" vertex="1" parent="1">
          <mxGeometry x="550" y="1575" width="60" height="60" as="geometry" />
        </mxCell>
        <mxCell id="HrXDNsSSmPqCC7vMRJJ6-7" value="Amazon API Gateway" style="sketch=0;outlineConnect=0;fontColor=#232F3E;gradientColor=none;strokeColor=#ffffff;fillColor=#232F3E;dashed=0;verticalLabelPosition=middle;verticalAlign=bottom;align=center;html=1;whiteSpace=wrap;fontSize=10;fontStyle=1;spacing=3;shape=mxgraph.aws4.productIcon;prIcon=mxgraph.aws4.api_gateway;" vertex="1" parent="1">
          <mxGeometry x="40" y="1800" width="80" height="110" as="geometry" />
        </mxCell>
        <mxCell id="HrXDNsSSmPqCC7vMRJJ6-24" value="Auto Scaling group" style="points=[[0,0],[0.25,0],[0.5,0],[0.75,0],[1,0],[1,0.25],[1,0.5],[1,0.75],[1,1],[0.75,1],[0.5,1],[0.25,1],[0,1],[0,0.75],[0,0.5],[0,0.25]];outlineConnect=0;gradientColor=none;html=1;whiteSpace=wrap;fontSize=12;fontStyle=0;container=1;pointerEvents=0;collapsible=0;recursiveResize=0;shape=mxgraph.aws4.groupCenter;grIcon=mxgraph.aws4.group_auto_scaling_group;grStroke=1;strokeColor=#D86613;fillColor=none;verticalAlign=top;align=center;fontColor=#D86613;dashed=1;spacingTop=25;" vertex="1" parent="1">
          <mxGeometry x="1214" y="1894" width="440" height="190" as="geometry" />
        </mxCell>
        <mxCell id="HrXDNsSSmPqCC7vMRJJ6-25" value="Amazon EC2" style="sketch=0;outlineConnect=0;fontColor=#232F3E;gradientColor=none;strokeColor=#ffffff;fillColor=#232F3E;dashed=0;verticalLabelPosition=middle;verticalAlign=bottom;align=center;html=1;whiteSpace=wrap;fontSize=10;fontStyle=1;spacing=3;shape=mxgraph.aws4.productIcon;prIcon=mxgraph.aws4.ec2;" vertex="1" parent="HrXDNsSSmPqCC7vMRJJ6-24">
          <mxGeometry x="40" y="60" width="80" height="100" as="geometry" />
        </mxCell>
        <mxCell id="HrXDNsSSmPqCC7vMRJJ6-26" value="Amazon EC2" style="sketch=0;outlineConnect=0;fontColor=#232F3E;gradientColor=none;strokeColor=#ffffff;fillColor=#232F3E;dashed=0;verticalLabelPosition=middle;verticalAlign=bottom;align=center;html=1;whiteSpace=wrap;fontSize=10;fontStyle=1;spacing=3;shape=mxgraph.aws4.productIcon;prIcon=mxgraph.aws4.ec2;" vertex="1" parent="HrXDNsSSmPqCC7vMRJJ6-24">
          <mxGeometry x="180" y="60" width="80" height="100" as="geometry" />
        </mxCell>
        <mxCell id="HrXDNsSSmPqCC7vMRJJ6-27" value="Amazon EC2" style="sketch=0;outlineConnect=0;fontColor=#232F3E;gradientColor=none;strokeColor=#ffffff;fillColor=#232F3E;dashed=0;verticalLabelPosition=middle;verticalAlign=bottom;align=center;html=1;whiteSpace=wrap;fontSize=10;fontStyle=1;spacing=3;shape=mxgraph.aws4.productIcon;prIcon=mxgraph.aws4.ec2;" vertex="1" parent="HrXDNsSSmPqCC7vMRJJ6-24">
          <mxGeometry x="320" y="60" width="80" height="100" as="geometry" />
        </mxCell>
        <mxCell id="HrXDNsSSmPqCC7vMRJJ6-28" value="" style="edgeStyle=none;rounded=0;orthogonalLoop=1;jettySize=auto;html=1;strokeColor=#000000;strokeWidth=2;" edge="1" parent="1" source="HrXDNsSSmPqCC7vMRJJ6-29">
          <mxGeometry relative="1" as="geometry">
            <mxPoint x="1432.25" y="1564" as="targetPoint" />
          </mxGeometry>
        </mxCell>
        <mxCell id="HrXDNsSSmPqCC7vMRJJ6-29" value="Client" style="sketch=0;outlineConnect=0;fontColor=#232F3E;gradientColor=none;strokeColor=#232F3E;fillColor=#ffffff;dashed=0;verticalLabelPosition=bottom;verticalAlign=top;align=center;html=1;fontSize=12;fontStyle=0;aspect=fixed;shape=mxgraph.aws4.resourceIcon;resIcon=mxgraph.aws4.client;" vertex="1" parent="1">
          <mxGeometry x="1402.25" y="1424" width="60" height="60" as="geometry" />
        </mxCell>
        <mxCell id="HrXDNsSSmPqCC7vMRJJ6-30" value="" style="edgeStyle=none;rounded=0;orthogonalLoop=1;jettySize=auto;html=1;strokeColor=#000000;strokeWidth=2;" edge="1" parent="1" source="HrXDNsSSmPqCC7vMRJJ6-33" target="HrXDNsSSmPqCC7vMRJJ6-39">
          <mxGeometry relative="1" as="geometry" />
        </mxCell>
        <mxCell id="HrXDNsSSmPqCC7vMRJJ6-31" style="edgeStyle=orthogonalEdgeStyle;rounded=0;orthogonalLoop=1;jettySize=auto;html=1;strokeColor=#000000;strokeWidth=2;" edge="1" parent="1" source="HrXDNsSSmPqCC7vMRJJ6-33" target="HrXDNsSSmPqCC7vMRJJ6-37">
          <mxGeometry relative="1" as="geometry" />
        </mxCell>
        <mxCell id="HrXDNsSSmPqCC7vMRJJ6-32" style="edgeStyle=orthogonalEdgeStyle;rounded=0;orthogonalLoop=1;jettySize=auto;html=1;strokeColor=#000000;strokeWidth=2;" edge="1" parent="1" source="HrXDNsSSmPqCC7vMRJJ6-33" target="HrXDNsSSmPqCC7vMRJJ6-35">
          <mxGeometry relative="1" as="geometry" />
        </mxCell>
        <mxCell id="HrXDNsSSmPqCC7vMRJJ6-33" value="Amazon API Gateway" style="sketch=0;outlineConnect=0;fontColor=#232F3E;gradientColor=none;strokeColor=#ffffff;fillColor=#232F3E;dashed=0;verticalLabelPosition=middle;verticalAlign=bottom;align=center;html=1;whiteSpace=wrap;fontSize=10;fontStyle=1;spacing=3;shape=mxgraph.aws4.productIcon;prIcon=mxgraph.aws4.api_gateway;" vertex="1" parent="1">
          <mxGeometry x="1394" y="1564" width="80" height="110" as="geometry" />
        </mxCell>
        <mxCell id="HrXDNsSSmPqCC7vMRJJ6-34" value="admin" style="edgeStyle=orthogonalEdgeStyle;rounded=0;orthogonalLoop=1;jettySize=auto;html=1;strokeColor=#000000;strokeWidth=2;" edge="1" parent="1" source="HrXDNsSSmPqCC7vMRJJ6-35" target="HrXDNsSSmPqCC7vMRJJ6-25">
          <mxGeometry relative="1" as="geometry" />
        </mxCell>
        <mxCell id="HrXDNsSSmPqCC7vMRJJ6-35" value="Elastic Load Balancing" style="sketch=0;outlineConnect=0;fontColor=#232F3E;gradientColor=none;strokeColor=#ffffff;fillColor=#232F3E;dashed=0;verticalLabelPosition=middle;verticalAlign=bottom;align=center;html=1;whiteSpace=wrap;fontSize=10;fontStyle=1;spacing=3;shape=mxgraph.aws4.productIcon;prIcon=mxgraph.aws4.elastic_load_balancing;" vertex="1" parent="1">
          <mxGeometry x="1254" y="1734" width="80" height="110" as="geometry" />
        </mxCell>
        <mxCell id="HrXDNsSSmPqCC7vMRJJ6-36" value="auth" style="edgeStyle=orthogonalEdgeStyle;rounded=0;orthogonalLoop=1;jettySize=auto;html=1;strokeColor=#000000;strokeWidth=2;" edge="1" parent="1" source="HrXDNsSSmPqCC7vMRJJ6-37" target="HrXDNsSSmPqCC7vMRJJ6-27">
          <mxGeometry relative="1" as="geometry" />
        </mxCell>
        <mxCell id="HrXDNsSSmPqCC7vMRJJ6-37" value="Elastic Load Balancing" style="sketch=0;outlineConnect=0;fontColor=#232F3E;gradientColor=none;strokeColor=#ffffff;fillColor=#232F3E;dashed=0;verticalLabelPosition=middle;verticalAlign=bottom;align=center;html=1;whiteSpace=wrap;fontSize=10;fontStyle=1;spacing=3;shape=mxgraph.aws4.productIcon;prIcon=mxgraph.aws4.elastic_load_balancing;" vertex="1" parent="1">
          <mxGeometry x="1534" y="1734" width="80" height="110" as="geometry" />
        </mxCell>
        <mxCell id="HrXDNsSSmPqCC7vMRJJ6-38" value="manage" style="edgeStyle=orthogonalEdgeStyle;rounded=0;orthogonalLoop=1;jettySize=auto;html=1;strokeColor=#000000;strokeWidth=2;" edge="1" parent="1" source="HrXDNsSSmPqCC7vMRJJ6-39" target="HrXDNsSSmPqCC7vMRJJ6-26">
          <mxGeometry relative="1" as="geometry" />
        </mxCell>
        <mxCell id="HrXDNsSSmPqCC7vMRJJ6-39" value="Elastic Load Balancing" style="sketch=0;outlineConnect=0;fontColor=#232F3E;gradientColor=none;strokeColor=#ffffff;fillColor=#232F3E;dashed=0;verticalLabelPosition=middle;verticalAlign=bottom;align=center;html=1;whiteSpace=wrap;fontSize=10;fontStyle=1;spacing=3;shape=mxgraph.aws4.productIcon;prIcon=mxgraph.aws4.elastic_load_balancing;" vertex="1" parent="1">
          <mxGeometry x="1394" y="1734" width="80" height="110" as="geometry" />
        </mxCell>
        <mxCell id="HrXDNsSSmPqCC7vMRJJ6-59" style="edgeStyle=none;rounded=0;orthogonalLoop=1;jettySize=auto;html=1;startArrow=none;startFill=0;strokeColor=#000000;strokeWidth=2;" edge="1" parent="1" source="HrXDNsSSmPqCC7vMRJJ6-43" target="HrXDNsSSmPqCC7vMRJJ6-56">
          <mxGeometry relative="1" as="geometry" />
        </mxCell>
        <mxCell id="HrXDNsSSmPqCC7vMRJJ6-43" value="Admin" style="sketch=0;outlineConnect=0;fontColor=#232F3E;gradientColor=none;strokeColor=#232F3E;fillColor=#ffffff;dashed=0;verticalLabelPosition=bottom;verticalAlign=top;align=center;html=1;fontSize=12;fontStyle=0;aspect=fixed;shape=mxgraph.aws4.resourceIcon;resIcon=mxgraph.aws4.client;" vertex="1" parent="1">
          <mxGeometry x="410" y="1575" width="60" height="60" as="geometry" />
        </mxCell>
        <mxCell id="HrXDNsSSmPqCC7vMRJJ6-58" style="rounded=0;orthogonalLoop=1;jettySize=auto;html=1;startArrow=none;startFill=0;strokeColor=#000000;strokeWidth=2;" edge="1" parent="1" source="HrXDNsSSmPqCC7vMRJJ6-44" target="HrXDNsSSmPqCC7vMRJJ6-56">
          <mxGeometry relative="1" as="geometry">
            <mxPoint x="720" y="1760" as="targetPoint" />
          </mxGeometry>
        </mxCell>
        <mxCell id="HrXDNsSSmPqCC7vMRJJ6-44" value="SDK" style="sketch=0;outlineConnect=0;fontColor=#232F3E;gradientColor=none;strokeColor=#232F3E;fillColor=#ffffff;dashed=0;verticalLabelPosition=bottom;verticalAlign=top;align=center;html=1;fontSize=12;fontStyle=0;aspect=fixed;shape=mxgraph.aws4.resourceIcon;resIcon=mxgraph.aws4.client;" vertex="1" parent="1">
          <mxGeometry x="690" y="1575" width="60" height="60" as="geometry" />
        </mxCell>
        <mxCell id="HrXDNsSSmPqCC7vMRJJ6-48" value="Amazon API Gateway" style="sketch=0;outlineConnect=0;fontColor=#232F3E;gradientColor=none;strokeColor=#ffffff;fillColor=#232F3E;dashed=0;verticalLabelPosition=middle;verticalAlign=bottom;align=center;html=1;whiteSpace=wrap;fontSize=10;fontStyle=1;spacing=3;shape=mxgraph.aws4.productIcon;prIcon=mxgraph.aws4.api_gateway;" vertex="1" parent="1">
          <mxGeometry x="540" y="2190" width="80" height="110" as="geometry" />
        </mxCell>
        <mxCell id="HrXDNsSSmPqCC7vMRJJ6-49" value="AWS Lambda" style="sketch=0;outlineConnect=0;fontColor=#232F3E;gradientColor=none;strokeColor=#ffffff;fillColor=#232F3E;dashed=0;verticalLabelPosition=middle;verticalAlign=bottom;align=center;html=1;whiteSpace=wrap;fontSize=10;fontStyle=1;spacing=3;shape=mxgraph.aws4.productIcon;prIcon=mxgraph.aws4.lambda;" vertex="1" parent="1">
          <mxGeometry x="360" y="2195" width="80" height="100" as="geometry" />
        </mxCell>
        <mxCell id="HrXDNsSSmPqCC7vMRJJ6-60" style="edgeStyle=none;rounded=0;orthogonalLoop=1;jettySize=auto;html=1;startArrow=none;startFill=0;strokeColor=#000000;strokeWidth=2;" edge="1" parent="1" source="HrXDNsSSmPqCC7vMRJJ6-15" target="HrXDNsSSmPqCC7vMRJJ6-48">
          <mxGeometry relative="1" as="geometry" />
        </mxCell>
        <mxCell id="HrXDNsSSmPqCC7vMRJJ6-61" style="edgeStyle=none;rounded=0;orthogonalLoop=1;jettySize=auto;html=1;startArrow=none;startFill=0;strokeColor=#000000;strokeWidth=2;" edge="1" parent="1" source="HrXDNsSSmPqCC7vMRJJ6-18" target="HrXDNsSSmPqCC7vMRJJ6-48">
          <mxGeometry relative="1" as="geometry" />
        </mxCell>
        <mxCell id="HrXDNsSSmPqCC7vMRJJ6-62" style="edgeStyle=none;rounded=0;orthogonalLoop=1;jettySize=auto;html=1;startArrow=none;startFill=0;strokeColor=#000000;strokeWidth=2;" edge="1" parent="1" source="HrXDNsSSmPqCC7vMRJJ6-19" target="HrXDNsSSmPqCC7vMRJJ6-48">
          <mxGeometry relative="1" as="geometry" />
        </mxCell>
        <mxCell id="HrXDNsSSmPqCC7vMRJJ6-64" value="Auto Scaling group" style="points=[[0,0],[0.25,0],[0.5,0],[0.75,0],[1,0],[1,0.25],[1,0.5],[1,0.75],[1,1],[0.75,1],[0.5,1],[0.25,1],[0,1],[0,0.75],[0,0.5],[0,0.25]];outlineConnect=0;gradientColor=none;html=1;whiteSpace=wrap;fontSize=12;fontStyle=0;container=1;pointerEvents=0;collapsible=0;recursiveResize=0;shape=mxgraph.aws4.groupCenter;grIcon=mxgraph.aws4.group_auto_scaling_group;grStroke=1;strokeColor=#D86613;fillColor=none;verticalAlign=top;align=center;fontColor=#D86613;dashed=1;spacingTop=25;" vertex="1" parent="1">
          <mxGeometry x="360" y="2725" width="440" height="220" as="geometry" />
        </mxCell>
        <mxCell id="HrXDNsSSmPqCC7vMRJJ6-65" value="Amazon EC2" style="sketch=0;outlineConnect=0;fontColor=#232F3E;gradientColor=none;strokeColor=#ffffff;fillColor=#232F3E;dashed=0;verticalLabelPosition=middle;verticalAlign=bottom;align=center;html=1;whiteSpace=wrap;fontSize=10;fontStyle=1;spacing=3;shape=mxgraph.aws4.productIcon;prIcon=mxgraph.aws4.ec2;" vertex="1" parent="HrXDNsSSmPqCC7vMRJJ6-64">
          <mxGeometry x="40" y="60" width="80" height="100" as="geometry" />
        </mxCell>
        <mxCell id="HrXDNsSSmPqCC7vMRJJ6-66" value="Amazon EC2" style="sketch=0;outlineConnect=0;fontColor=#232F3E;gradientColor=none;strokeColor=#ffffff;fillColor=#232F3E;dashed=0;verticalLabelPosition=middle;verticalAlign=bottom;align=center;html=1;whiteSpace=wrap;fontSize=10;fontStyle=1;spacing=3;shape=mxgraph.aws4.productIcon;prIcon=mxgraph.aws4.ec2;" vertex="1" parent="HrXDNsSSmPqCC7vMRJJ6-64">
          <mxGeometry x="180" y="60" width="80" height="100" as="geometry" />
        </mxCell>
        <mxCell id="HrXDNsSSmPqCC7vMRJJ6-67" value="Amazon EC2" style="sketch=0;outlineConnect=0;fontColor=#232F3E;gradientColor=none;strokeColor=#ffffff;fillColor=#232F3E;dashed=0;verticalLabelPosition=middle;verticalAlign=bottom;align=center;html=1;whiteSpace=wrap;fontSize=10;fontStyle=1;spacing=3;shape=mxgraph.aws4.productIcon;prIcon=mxgraph.aws4.ec2;" vertex="1" parent="HrXDNsSSmPqCC7vMRJJ6-64">
          <mxGeometry x="320" y="60" width="80" height="100" as="geometry" />
        </mxCell>
        <mxCell id="HrXDNsSSmPqCC7vMRJJ6-83" value="" style="edgeStyle=none;rounded=0;orthogonalLoop=1;jettySize=auto;html=1;startArrow=none;startFill=0;strokeColor=#000000;strokeWidth=2;" edge="1" parent="1" source="HrXDNsSSmPqCC7vMRJJ6-69" target="HrXDNsSSmPqCC7vMRJJ6-79">
          <mxGeometry relative="1" as="geometry" />
        </mxCell>
        <mxCell id="HrXDNsSSmPqCC7vMRJJ6-69" value="User" style="sketch=0;outlineConnect=0;fontColor=#232F3E;gradientColor=none;strokeColor=#232F3E;fillColor=#ffffff;dashed=0;verticalLabelPosition=bottom;verticalAlign=top;align=center;html=1;fontSize=12;fontStyle=0;aspect=fixed;shape=mxgraph.aws4.resourceIcon;resIcon=mxgraph.aws4.client;" vertex="1" parent="1">
          <mxGeometry x="550" y="2440" width="60" height="60" as="geometry" />
        </mxCell>
        <mxCell id="HrXDNsSSmPqCC7vMRJJ6-82" value="" style="edgeStyle=none;rounded=0;orthogonalLoop=1;jettySize=auto;html=1;startArrow=none;startFill=0;strokeColor=#000000;strokeWidth=2;" edge="1" parent="1" source="HrXDNsSSmPqCC7vMRJJ6-71" target="HrXDNsSSmPqCC7vMRJJ6-81">
          <mxGeometry relative="1" as="geometry" />
        </mxCell>
        <mxCell id="HrXDNsSSmPqCC7vMRJJ6-71" value="Admin" style="sketch=0;outlineConnect=0;fontColor=#232F3E;gradientColor=none;strokeColor=#232F3E;fillColor=#ffffff;dashed=0;verticalLabelPosition=bottom;verticalAlign=top;align=center;html=1;fontSize=12;fontStyle=0;aspect=fixed;shape=mxgraph.aws4.resourceIcon;resIcon=mxgraph.aws4.client;" vertex="1" parent="1">
          <mxGeometry x="410" y="2440" width="60" height="60" as="geometry" />
        </mxCell>
        <mxCell id="HrXDNsSSmPqCC7vMRJJ6-84" value="" style="edgeStyle=none;rounded=0;orthogonalLoop=1;jettySize=auto;html=1;startArrow=none;startFill=0;strokeColor=#000000;strokeWidth=2;" edge="1" parent="1" source="HrXDNsSSmPqCC7vMRJJ6-73" target="HrXDNsSSmPqCC7vMRJJ6-80">
          <mxGeometry relative="1" as="geometry" />
        </mxCell>
        <mxCell id="HrXDNsSSmPqCC7vMRJJ6-73" value="SDK" style="sketch=0;outlineConnect=0;fontColor=#232F3E;gradientColor=none;strokeColor=#232F3E;fillColor=#ffffff;dashed=0;verticalLabelPosition=bottom;verticalAlign=top;align=center;html=1;fontSize=12;fontStyle=0;aspect=fixed;shape=mxgraph.aws4.resourceIcon;resIcon=mxgraph.aws4.client;" vertex="1" parent="1">
          <mxGeometry x="690" y="2440" width="60" height="60" as="geometry" />
        </mxCell>
        <mxCell id="HrXDNsSSmPqCC7vMRJJ6-74" value="Amazon API Gateway" style="sketch=0;outlineConnect=0;fontColor=#232F3E;gradientColor=none;strokeColor=#ffffff;fillColor=#232F3E;dashed=0;verticalLabelPosition=middle;verticalAlign=bottom;align=center;html=1;whiteSpace=wrap;fontSize=10;fontStyle=1;spacing=3;shape=mxgraph.aws4.productIcon;prIcon=mxgraph.aws4.api_gateway;" vertex="1" parent="1">
          <mxGeometry x="540" y="3055" width="80" height="110" as="geometry" />
        </mxCell>
        <mxCell id="HrXDNsSSmPqCC7vMRJJ6-92" value="" style="edgeStyle=none;rounded=0;orthogonalLoop=1;jettySize=auto;html=1;startArrow=none;startFill=0;strokeColor=#000000;strokeWidth=2;" edge="1" parent="1" source="HrXDNsSSmPqCC7vMRJJ6-75" target="HrXDNsSSmPqCC7vMRJJ6-74">
          <mxGeometry relative="1" as="geometry" />
        </mxCell>
        <mxCell id="HrXDNsSSmPqCC7vMRJJ6-75" value="AWS Lambda" style="sketch=0;outlineConnect=0;fontColor=#232F3E;gradientColor=none;strokeColor=#ffffff;fillColor=#232F3E;dashed=0;verticalLabelPosition=middle;verticalAlign=bottom;align=center;html=1;whiteSpace=wrap;fontSize=10;fontStyle=1;spacing=3;shape=mxgraph.aws4.productIcon;prIcon=mxgraph.aws4.lambda;" vertex="1" parent="1">
          <mxGeometry x="360" y="3060" width="80" height="100" as="geometry" />
        </mxCell>
        <mxCell id="HrXDNsSSmPqCC7vMRJJ6-86" value="" style="edgeStyle=none;rounded=0;orthogonalLoop=1;jettySize=auto;html=1;startArrow=none;startFill=0;strokeColor=#000000;strokeWidth=2;" edge="1" parent="1" source="HrXDNsSSmPqCC7vMRJJ6-79" target="HrXDNsSSmPqCC7vMRJJ6-66">
          <mxGeometry relative="1" as="geometry" />
        </mxCell>
        <mxCell id="HrXDNsSSmPqCC7vMRJJ6-79" value="Elastic Load Balancing" style="sketch=0;outlineConnect=0;fontColor=#232F3E;gradientColor=none;strokeColor=#ffffff;fillColor=#232F3E;dashed=0;verticalLabelPosition=middle;verticalAlign=bottom;align=center;html=1;whiteSpace=wrap;fontSize=10;fontStyle=1;spacing=3;shape=mxgraph.aws4.productIcon;prIcon=mxgraph.aws4.elastic_load_balancing;" vertex="1" parent="1">
          <mxGeometry x="540" y="2560" width="80" height="110" as="geometry" />
        </mxCell>
        <mxCell id="HrXDNsSSmPqCC7vMRJJ6-87" value="" style="edgeStyle=none;rounded=0;orthogonalLoop=1;jettySize=auto;html=1;startArrow=none;startFill=0;strokeColor=#000000;strokeWidth=2;" edge="1" parent="1" source="HrXDNsSSmPqCC7vMRJJ6-80" target="HrXDNsSSmPqCC7vMRJJ6-67">
          <mxGeometry relative="1" as="geometry" />
        </mxCell>
        <mxCell id="HrXDNsSSmPqCC7vMRJJ6-80" value="Elastic Load Balancing" style="sketch=0;outlineConnect=0;fontColor=#232F3E;gradientColor=none;strokeColor=#ffffff;fillColor=#232F3E;dashed=0;verticalLabelPosition=middle;verticalAlign=bottom;align=center;html=1;whiteSpace=wrap;fontSize=10;fontStyle=1;spacing=3;shape=mxgraph.aws4.productIcon;prIcon=mxgraph.aws4.elastic_load_balancing;" vertex="1" parent="1">
          <mxGeometry x="680" y="2560" width="80" height="110" as="geometry" />
        </mxCell>
        <mxCell id="HrXDNsSSmPqCC7vMRJJ6-85" value="" style="edgeStyle=none;rounded=0;orthogonalLoop=1;jettySize=auto;html=1;startArrow=none;startFill=0;strokeColor=#000000;strokeWidth=2;" edge="1" parent="1" source="HrXDNsSSmPqCC7vMRJJ6-81" target="HrXDNsSSmPqCC7vMRJJ6-65">
          <mxGeometry relative="1" as="geometry" />
        </mxCell>
        <mxCell id="HrXDNsSSmPqCC7vMRJJ6-81" value="Elastic Load Balancing" style="sketch=0;outlineConnect=0;fontColor=#232F3E;gradientColor=none;strokeColor=#ffffff;fillColor=#232F3E;dashed=0;verticalLabelPosition=middle;verticalAlign=bottom;align=center;html=1;whiteSpace=wrap;fontSize=10;fontStyle=1;spacing=3;shape=mxgraph.aws4.productIcon;prIcon=mxgraph.aws4.elastic_load_balancing;" vertex="1" parent="1">
          <mxGeometry x="400" y="2560" width="80" height="110" as="geometry" />
        </mxCell>
        <mxCell id="HrXDNsSSmPqCC7vMRJJ6-89" style="edgeStyle=none;rounded=0;orthogonalLoop=1;jettySize=auto;html=1;startArrow=classic;startFill=1;strokeColor=#000000;strokeWidth=2;" edge="1" parent="1" source="HrXDNsSSmPqCC7vMRJJ6-65" target="HrXDNsSSmPqCC7vMRJJ6-74">
          <mxGeometry relative="1" as="geometry" />
        </mxCell>
        <mxCell id="HrXDNsSSmPqCC7vMRJJ6-90" style="edgeStyle=none;rounded=0;orthogonalLoop=1;jettySize=auto;html=1;startArrow=classic;startFill=1;strokeColor=#000000;strokeWidth=2;" edge="1" parent="1" source="HrXDNsSSmPqCC7vMRJJ6-66" target="HrXDNsSSmPqCC7vMRJJ6-74">
          <mxGeometry relative="1" as="geometry" />
        </mxCell>
        <mxCell id="HrXDNsSSmPqCC7vMRJJ6-91" style="edgeStyle=none;rounded=0;orthogonalLoop=1;jettySize=auto;html=1;startArrow=classic;startFill=1;strokeColor=#000000;strokeWidth=2;" edge="1" parent="1" source="HrXDNsSSmPqCC7vMRJJ6-67" target="HrXDNsSSmPqCC7vMRJJ6-74">
          <mxGeometry relative="1" as="geometry" />
        </mxCell>
      </root>
    </mxGraphModel>
  </diagram>
</mxfile>
